<?xml version="1.0" standalone="no"?>
<!DOCTYPE svg PUBLIC "-//W3C//DTD SVG 20010904//EN"
 "http://www.w3.org/TR/2001/REC-SVG-20010904/DTD/svg10.dtd">
<svg version="1.0" xmlns="http://www.w3.org/2000/svg"
 width="1200.000000pt" height="632.000000pt" viewBox="0 0 1200.000000 632.000000"
 preserveAspectRatio="xMidYMid meet">
<metadata>
Created by potrace 1.15, written by Peter Selinger 2001-2017
</metadata>
<g transform="translate(0.000000,632.000000) scale(0.100000,-0.100000)"
fill="#000000" stroke="none">
<path d="M0 4620 l0 -1700 6000 0 6000 0 0 240 0 240 -3600 0 -3600 0 0 245 0
245 3600 0 3600 0 0 240 0 240 -3600 0 -3600 0 0 245 0 245 3600 0 3600 0 0
245 0 245 -3600 0 -3600 0 0 245 0 245 3600 0 3600 0 0 240 0 240 -6000 0
-6000 0 0 -1700z m425 1480 l18 -59 70 -3 71 -3 -56 -39 -56 -38 19 -56 c11
-31 18 -60 17 -64 -2 -5 -26 7 -53 27 -28 19 -53 35 -56 35 -3 0 -27 -16 -53
-36 -26 -20 -50 -34 -53 -31 -3 3 4 33 15 66 l20 60 -55 38 -56 38 70 3 70 3
18 59 c10 33 21 60 25 60 4 0 15 -27 25 -60z m800 0 l18 -59 70 -3 71 -3 -56
-39 -56 -38 19 -56 c11 -31 18 -60 17 -64 -2 -5 -26 7 -53 27 -28 19 -53 35
-56 35 -3 0 -27 -16 -53 -36 -26 -20 -50 -34 -53 -31 -3 3 4 33 15 66 l20 60
-55 38 -56 38 70 3 70 3 18 59 c10 33 21 60 25 60 4 0 15 -27 25 -60z m800 0
l18 -59 70 -3 71 -3 -56 -39 -56 -38 19 -56 c11 -31 18 -60 17 -64 -2 -5 -26
7 -53 27 -28 19 -53 35 -56 35 -3 0 -27 -16 -53 -36 -26 -20 -50 -34 -53 -31
-3 3 4 33 15 66 l20 60 -55 38 -56 38 70 3 70 3 18 59 c10 33 21 60 25 60 4 0
15 -27 25 -60z m800 0 l18 -59 70 -3 71 -3 -56 -39 -56 -38 19 -56 c11 -31 18
-60 17 -64 -2 -5 -26 7 -53 27 -28 19 -53 35 -56 35 -3 0 -27 -16 -53 -36 -26
-20 -50 -34 -53 -31 -3 3 4 33 15 66 l20 60 -55 38 -56 38 70 3 70 3 18 59
c10 33 21 60 25 60 4 0 15 -27 25 -60z m800 0 l18 -59 70 -3 71 -3 -56 -39
-56 -38 19 -56 c11 -31 18 -60 17 -64 -2 -5 -26 7 -53 27 -28 19 -53 35 -56
35 -3 0 -27 -16 -53 -36 -26 -20 -50 -34 -53 -31 -3 3 4 33 15 66 l20 60 -55
38 -56 38 70 3 70 3 18 59 c10 33 21 60 25 60 4 0 15 -27 25 -60z m800 0 l18
-59 70 -3 71 -3 -56 -39 -56 -38 19 -56 c11 -31 18 -60 17 -64 -2 -5 -26 7
-53 27 -28 19 -53 35 -56 35 -3 0 -27 -16 -53 -36 -26 -20 -50 -34 -53 -31 -3
3 4 33 15 66 l20 60 -55 38 -56 38 70 3 70 3 18 59 c10 33 21 60 25 60 4 0 15
-27 25 -60z m-3600 -340 l18 -59 70 -3 69 -3 -55 -40 -54 -39 19 -59 c11 -32
18 -61 15 -64 -4 -3 -23 8 -44 24 -60 47 -60 47 -114 8 -28 -20 -53 -34 -56
-31 -3 3 4 32 15 64 l20 60 -56 39 -56 38 71 3 70 3 18 59 c10 33 21 60 25 60
4 0 15 -27 25 -60z m800 0 l18 -59 70 -3 69 -3 -55 -40 -54 -39 19 -59 c11
-32 18 -61 15 -64 -4 -3 -23 8 -44 24 -60 47 -60 47 -114 8 -28 -20 -53 -34
-56 -31 -3 3 4 32 15 64 l20 60 -56 39 -56 38 71 3 70 3 18 59 c10 33 21 60
25 60 4 0 15 -27 25 -60z m800 0 l18 -59 70 -3 69 -3 -55 -40 -54 -39 19 -59
c11 -32 18 -61 15 -64 -4 -3 -23 8 -44 24 -60 47 -60 47 -114 8 -28 -20 -53
-34 -56 -31 -3 3 4 32 15 64 l20 60 -56 39 -56 38 71 3 70 3 18 59 c10 33 21
60 25 60 4 0 15 -27 25 -60z m800 0 l18 -59 70 -3 69 -3 -55 -40 -54 -39 19
-59 c11 -32 18 -61 15 -64 -4 -3 -23 8 -44 24 -60 47 -60 47 -114 8 -28 -20
-53 -34 -56 -31 -3 3 4 32 15 64 l20 60 -56 39 -56 38 71 3 70 3 18 59 c10 33
21 60 25 60 4 0 15 -27 25 -60z m800 0 l18 -59 70 -3 69 -3 -55 -40 -54 -39
19 -59 c11 -32 18 -61 15 -64 -4 -3 -23 8 -44 24 -60 47 -60 47 -114 8 -28
-20 -53 -34 -56 -31 -3 3 4 32 15 64 l20 60 -56 39 -56 38 71 3 70 3 18 59
c10 33 21 60 25 60 4 0 15 -27 25 -60z m-3600 -340 l18 -59 70 -3 69 -3 -55
-40 -54 -39 19 -59 c11 -32 18 -61 15 -64 -4 -3 -23 8 -44 24 -60 47 -60 47
-114 8 -28 -20 -53 -34 -56 -31 -3 3 4 32 15 64 l20 60 -56 39 -56 38 71 3 70
3 18 59 c10 33 21 60 25 60 4 0 15 -27 25 -60z m800 0 l18 -59 70 -3 69 -3
-55 -40 -54 -39 19 -59 c11 -32 18 -61 15 -64 -4 -3 -23 8 -44 24 -60 47 -60
47 -114 8 -28 -20 -53 -34 -56 -31 -3 3 4 32 15 64 l20 60 -56 39 -56 38 71 3
70 3 18 59 c10 33 21 60 25 60 4 0 15 -27 25 -60z m800 0 l18 -59 70 -3 69 -3
-55 -40 -54 -39 19 -59 c11 -32 18 -61 15 -64 -4 -3 -23 8 -44 24 -60 47 -60
47 -114 8 -28 -20 -53 -34 -56 -31 -3 3 4 32 15 64 l20 60 -56 39 -56 38 71 3
70 3 18 59 c10 33 21 60 25 60 4 0 15 -27 25 -60z m800 0 l18 -59 70 -3 69 -3
-55 -40 -54 -39 19 -59 c11 -32 18 -61 15 -64 -4 -3 -23 8 -44 24 -60 47 -60
47 -114 8 -28 -20 -53 -34 -56 -31 -3 3 4 32 15 64 l20 60 -56 39 -56 38 71 3
70 3 18 59 c10 33 21 60 25 60 4 0 15 -27 25 -60z m800 0 l18 -59 70 -3 69 -3
-55 -40 -54 -39 19 -59 c11 -32 18 -61 15 -64 -4 -3 -23 8 -44 24 -60 47 -60
47 -114 8 -28 -20 -53 -34 -56 -31 -3 3 4 32 15 64 l20 60 -56 39 -56 38 71 3
70 3 18 59 c10 33 21 60 25 60 4 0 15 -27 25 -60z m800 0 l18 -59 70 -3 69 -3
-55 -40 -54 -39 19 -59 c11 -32 18 -61 15 -64 -4 -3 -23 8 -44 24 -60 47 -60
47 -114 8 -28 -20 -53 -34 -56 -31 -3 3 4 32 15 64 l20 60 -56 39 -56 38 71 3
70 3 18 59 c10 33 21 60 25 60 4 0 15 -27 25 -60z m-3600 -340 l18 -59 70 -3
69 -3 -54 -39 -55 -40 19 -59 c10 -33 16 -62 14 -65 -3 -2 -22 9 -43 25 -60
47 -60 47 -114 8 -28 -20 -53 -34 -56 -31 -3 3 4 32 15 64 l20 60 -56 39 -56
38 71 3 70 3 18 59 c10 33 21 60 25 60 4 0 15 -27 25 -60z m800 0 l18 -59 70
-3 69 -3 -54 -39 -55 -40 19 -59 c10 -33 16 -62 14 -65 -3 -2 -22 9 -43 25
-60 47 -60 47 -114 8 -28 -20 -53 -34 -56 -31 -3 3 4 32 15 64 l20 60 -56 39
-56 38 71 3 70 3 18 59 c10 33 21 60 25 60 4 0 15 -27 25 -60z m800 0 l18 -59
70 -3 69 -3 -54 -39 -55 -40 19 -59 c10 -33 16 -62 14 -65 -3 -2 -22 9 -43 25
-60 47 -60 47 -114 8 -28 -20 -53 -34 -56 -31 -3 3 4 32 15 64 l20 60 -56 39
-56 38 71 3 70 3 18 59 c10 33 21 60 25 60 4 0 15 -27 25 -60z m800 0 l18 -59
70 -3 69 -3 -54 -39 -55 -40 19 -59 c10 -33 16 -62 14 -65 -3 -2 -22 9 -43 25
-60 47 -60 47 -114 8 -28 -20 -53 -34 -56 -31 -3 3 4 32 15 64 l20 60 -56 39
-56 38 71 3 70 3 18 59 c10 33 21 60 25 60 4 0 15 -27 25 -60z m800 0 l18 -59
70 -3 69 -3 -54 -39 -55 -40 19 -59 c10 -33 16 -62 14 -65 -3 -2 -22 9 -43 25
-60 47 -60 47 -114 8 -28 -20 -53 -34 -56 -31 -3 3 4 32 15 64 l20 60 -56 39
-56 38 71 3 70 3 18 59 c10 33 21 60 25 60 4 0 15 -27 25 -60z m-3600 -340
l18 -59 71 -3 71 -3 -56 -39 -56 -39 19 -60 c10 -33 16 -62 14 -64 -2 -2 -27
12 -55 32 l-51 37 -50 -37 c-28 -21 -53 -35 -56 -33 -2 3 4 32 14 65 l19 59
-55 40 -54 39 69 3 70 3 18 59 c10 33 21 60 25 60 4 0 15 -27 25 -60z m800 0
l18 -59 71 -3 71 -3 -56 -39 -56 -39 19 -60 c10 -33 16 -62 14 -64 -2 -2 -27
12 -55 32 l-51 37 -50 -37 c-28 -21 -53 -35 -56 -33 -2 3 4 32 14 65 l19 59
-55 40 -54 39 69 3 70 3 18 59 c10 33 21 60 25 60 4 0 15 -27 25 -60z m800 0
l18 -59 71 -3 71 -3 -56 -39 -56 -39 19 -60 c10 -33 16 -62 14 -64 -2 -2 -27
12 -55 32 l-51 37 -50 -37 c-28 -21 -53 -35 -56 -33 -2 3 4 32 14 65 l19 59
-55 40 -54 39 69 3 70 3 18 59 c10 33 21 60 25 60 4 0 15 -27 25 -60z m800 0
l18 -59 71 -3 71 -3 -56 -39 -56 -39 19 -60 c10 -33 16 -62 14 -64 -2 -2 -27
12 -55 32 l-51 37 -50 -37 c-28 -21 -53 -35 -56 -33 -2 3 4 32 14 65 l19 59
-55 40 -54 39 69 3 70 3 18 59 c10 33 21 60 25 60 4 0 15 -27 25 -60z m800 0
l18 -59 71 -3 71 -3 -56 -39 -56 -39 19 -60 c10 -33 16 -62 14 -64 -2 -2 -27
12 -55 32 l-51 37 -50 -37 c-28 -21 -53 -35 -56 -33 -2 3 4 32 14 65 l19 59
-55 40 -54 39 69 3 70 3 18 59 c10 33 21 60 25 60 4 0 15 -27 25 -60z m800 0
l18 -59 71 -3 71 -3 -56 -39 -56 -39 19 -60 c10 -33 16 -62 14 -64 -2 -2 -27
12 -55 32 l-51 37 -50 -37 c-28 -21 -53 -35 -56 -33 -2 3 4 32 14 65 l19 59
-55 40 -54 39 69 3 70 3 18 59 c10 33 21 60 25 60 4 0 15 -27 25 -60z m-3600
-340 l18 -59 71 -3 71 -3 -56 -39 -56 -39 19 -60 c10 -33 16 -62 14 -64 -2 -2
-27 12 -55 32 l-51 37 -50 -37 c-28 -21 -53 -35 -56 -33 -2 3 4 32 14 65 l19
59 -55 40 -54 39 69 3 70 3 18 59 c10 33 21 60 25 60 4 0 15 -27 25 -60z m800
0 l18 -59 71 -3 71 -3 -56 -39 -56 -39 19 -60 c10 -33 16 -62 14 -64 -2 -2
-27 12 -55 32 l-51 37 -50 -37 c-28 -21 -53 -35 -56 -33 -2 3 4 32 14 65 l19
59 -55 40 -54 39 69 3 70 3 18 59 c10 33 21 60 25 60 4 0 15 -27 25 -60z m800
0 l18 -59 71 -3 71 -3 -56 -39 -56 -39 19 -60 c10 -33 16 -62 14 -64 -2 -2
-27 12 -55 32 l-51 37 -50 -37 c-28 -21 -53 -35 -56 -33 -2 3 4 32 14 65 l19
59 -55 40 -54 39 69 3 70 3 18 59 c10 33 21 60 25 60 4 0 15 -27 25 -60z m800
0 l18 -59 71 -3 71 -3 -56 -39 -56 -39 19 -60 c10 -33 16 -62 14 -64 -2 -2
-27 12 -55 32 l-51 37 -50 -37 c-28 -21 -53 -35 -56 -33 -2 3 4 32 14 65 l19
59 -55 40 -54 39 69 3 70 3 18 59 c10 33 21 60 25 60 4 0 15 -27 25 -60z m800
0 l18 -59 71 -3 71 -3 -56 -39 -56 -39 19 -60 c10 -33 16 -62 14 -64 -2 -2
-27 12 -55 32 l-51 37 -50 -37 c-28 -21 -53 -35 -56 -33 -2 3 4 32 14 65 l19
59 -55 40 -54 39 69 3 70 3 18 59 c10 33 21 60 25 60 4 0 15 -27 25 -60z
m-3600 -340 l18 -59 71 -3 71 -3 -56 -39 -56 -40 18 -60 c10 -33 17 -62 15
-64 -2 -2 -27 13 -55 33 l-51 37 -50 -37 c-28 -21 -53 -35 -55 -33 -2 2 4 31
14 64 l18 60 -56 40 -56 39 71 3 71 3 18 59 c10 33 21 60 25 60 4 0 15 -27 25
-60z m800 0 l18 -59 71 -3 71 -3 -56 -39 -56 -40 18 -60 c10 -33 17 -62 15
-64 -2 -2 -27 13 -55 33 l-51 37 -50 -37 c-28 -21 -53 -35 -55 -33 -2 2 4 31
14 64 l18 60 -56 40 -56 39 71 3 71 3 18 59 c10 33 21 60 25 60 4 0 15 -27 25
-60z m800 0 l18 -59 71 -3 71 -3 -56 -39 -56 -40 18 -60 c10 -33 17 -62 15
-64 -2 -2 -27 13 -55 33 l-51 37 -50 -37 c-28 -21 -53 -35 -55 -33 -2 2 4 31
14 64 l18 60 -56 40 -56 39 71 3 71 3 18 59 c10 33 21 60 25 60 4 0 15 -27 25
-60z m800 0 l18 -59 71 -3 71 -3 -56 -39 -56 -40 18 -60 c10 -33 17 -62 15
-64 -2 -2 -27 13 -55 33 l-51 37 -50 -37 c-28 -21 -53 -35 -55 -33 -2 2 4 31
14 64 l18 60 -56 40 -56 39 71 3 71 3 18 59 c10 33 21 60 25 60 4 0 15 -27 25
-60z m800 0 l18 -59 71 -3 71 -3 -56 -39 -56 -40 18 -60 c10 -33 17 -62 15
-64 -2 -2 -27 13 -55 33 l-51 37 -50 -37 c-28 -21 -53 -35 -55 -33 -2 2 4 31
14 64 l18 60 -56 40 -56 39 71 3 71 3 18 59 c10 33 21 60 25 60 4 0 15 -27 25
-60z m800 0 l18 -59 71 -3 71 -3 -56 -39 -56 -40 18 -60 c10 -33 17 -62 15
-64 -2 -2 -27 13 -55 33 l-51 37 -50 -37 c-28 -21 -53 -35 -55 -33 -2 2 4 31
14 64 l18 60 -56 40 -56 39 71 3 71 3 18 59 c10 33 21 60 25 60 4 0 15 -27 25
-60z m-3600 -340 l18 -59 71 -3 71 -3 -56 -40 -55 -40 17 -60 c10 -32 16 -61
14 -63 -2 -3 -27 12 -55 33 l-50 37 -50 -37 c-28 -21 -53 -35 -55 -33 -2 2 4
31 14 64 l18 60 -56 40 -56 39 71 3 71 3 18 59 c10 33 21 60 25 60 4 0 15 -27
25 -60z m800 0 l18 -59 71 -3 71 -3 -56 -40 -55 -40 17 -60 c10 -32 16 -61 14
-63 -2 -3 -27 12 -55 33 l-50 37 -50 -37 c-28 -21 -53 -35 -55 -33 -2 2 4 31
14 64 l18 60 -56 40 -56 39 71 3 71 3 18 59 c10 33 21 60 25 60 4 0 15 -27 25
-60z m800 0 l18 -59 71 -3 71 -3 -56 -40 -55 -40 17 -60 c10 -32 16 -61 14
-63 -2 -3 -27 12 -55 33 l-50 37 -50 -37 c-28 -21 -53 -35 -55 -33 -2 2 4 31
14 64 l18 60 -56 40 -56 39 71 3 71 3 18 59 c10 33 21 60 25 60 4 0 15 -27 25
-60z m800 0 l18 -59 71 -3 71 -3 -56 -40 -55 -40 17 -60 c10 -32 16 -61 14
-63 -2 -3 -27 12 -55 33 l-50 37 -50 -37 c-28 -21 -53 -35 -55 -33 -2 2 4 31
14 64 l18 60 -56 40 -56 39 71 3 71 3 18 59 c10 33 21 60 25 60 4 0 15 -27 25
-60z m800 0 l18 -59 71 -3 71 -3 -56 -40 -55 -40 17 -60 c10 -32 16 -61 14
-63 -2 -3 -27 12 -55 33 l-50 37 -50 -37 c-28 -21 -53 -35 -55 -33 -2 2 4 31
14 64 l18 60 -56 40 -56 39 71 3 71 3 18 59 c10 33 21 60 25 60 4 0 15 -27 25
-60z m-3600 -340 l18 -59 71 -3 71 -3 -56 -40 -56 -41 18 -59 c10 -33 19 -64
19 -68 0 -4 -25 11 -55 34 l-55 41 -55 -41 c-30 -23 -55 -38 -55 -34 0 4 8 35
19 69 l18 60 -56 40 -56 39 71 3 71 3 18 59 c10 33 21 60 25 60 4 0 15 -27 25
-60z m800 0 l18 -59 71 -3 71 -3 -56 -40 -56 -41 18 -59 c10 -33 19 -64 19
-68 0 -4 -25 11 -55 34 l-55 41 -55 -41 c-30 -23 -55 -38 -55 -34 0 4 8 35 19
69 l18 60 -56 40 -56 39 71 3 71 3 18 59 c10 33 21 60 25 60 4 0 15 -27 25
-60z m800 0 l18 -59 71 -3 71 -3 -56 -40 -56 -41 18 -59 c10 -33 19 -64 19
-68 0 -4 -25 11 -55 34 l-55 41 -55 -41 c-30 -23 -55 -38 -55 -34 0 4 8 35 19
69 l18 60 -56 40 -56 39 71 3 71 3 18 59 c10 33 21 60 25 60 4 0 15 -27 25
-60z m800 0 l18 -59 71 -3 71 -3 -56 -40 -56 -41 18 -59 c10 -33 19 -64 19
-68 0 -4 -25 11 -55 34 l-55 41 -55 -41 c-30 -23 -55 -38 -55 -34 0 4 8 35 19
69 l18 60 -56 40 -56 39 71 3 71 3 18 59 c10 33 21 60 25 60 4 0 15 -27 25
-60z m800 0 l18 -59 71 -3 71 -3 -56 -40 -56 -41 18 -59 c10 -33 19 -64 19
-68 0 -4 -25 11 -55 34 l-55 41 -55 -41 c-30 -23 -55 -38 -55 -34 0 4 8 35 19
69 l18 60 -56 40 -56 39 71 3 71 3 18 59 c10 33 21 60 25 60 4 0 15 -27 25
-60z m800 0 l18 -59 71 -3 71 -3 -56 -40 -56 -41 18 -59 c10 -33 19 -64 19
-68 0 -4 -25 11 -55 34 l-55 41 -55 -41 c-30 -23 -55 -38 -55 -34 0 4 8 35 19
69 l18 60 -56 40 -56 39 71 3 71 3 18 59 c10 33 21 60 25 60 4 0 15 -27 25
-60z"/>
<path d="M0 2190 l0 -240 6000 0 6000 0 0 240 0 240 -6000 0 -6000 0 0 -240z"/>
<path d="M0 1215 l0 -245 6000 0 6000 0 0 245 0 245 -6000 0 -6000 0 0 -245z"/>
<path d="M0 240 l0 -240 6000 0 6000 0 0 240 0 240 -6000 0 -6000 0 0 -240z"/>
</g>
</svg>
